<svg xmlns="http://www.w3.org/2000/svg" width="24" height="24" viewBox="0 0 24 24" fill="none" stroke="rgb(26, 140, 255)" stroke-width="2" stroke-linecap="round" stroke-linejoin="round" class="" data-lov-id="src/components/Services.tsx:72:20" data-lov-name="Icon" data-component-path="src/components/Services.tsx" data-component-line="72" data-component-file="Services.tsx" data-component-name="Icon" data-component-content="%7B%22className%22%3A%22w-6%20h-6%20text-accent%22%7D"><path d="m21.64 3.64-1.28-1.28a1.21 1.21 0 0 0-1.72 0L2.36 18.64a1.21 1.21 0 0 0 0 1.72l1.28 1.28a1.2 1.2 0 0 0 1.72 0L21.64 5.36a1.2 1.2 0 0 0 0-1.72"></path><path d="m14 7 3 3"></path><path d="M5 6v4"></path><path d="M19 14v4"></path><path d="M10 2v2"></path><path d="M7 8H3"></path><path d="M21 16h-4"></path><path d="M11 3H9"></path></svg>
