<svg xmlns="http://www.w3.org/2000/svg" width="24" height="24" viewBox="0 0 24 24" fill="none" stroke="rgb(26, 140, 255)" stroke-width="2" stroke-linecap="round" stroke-linejoin="round" class="" data-lov-id="src/components/Services.tsx:72:20" data-lov-name="Icon" data-component-path="src/components/Services.tsx" data-component-line="72" data-component-file="Services.tsx" data-component-name="Icon" data-component-content="%7B%22className%22%3A%22w-6%20h-6%20text-accent%22%7D"><path d="M7 16.3c2.2 0 4-1.83 4-4.05 0-1.16-.57-2.26-1.71-3.19S7.29 6.75 7 5.3c-.29 1.45-1.14 2.84-2.29 3.76S3 11.1 3 12.25c0 2.22 1.8 4.05 4 4.05z"></path><path d="M12.56 6.6A10.97 10.97 0 0 0 14 3.02c.5 2.5 2 4.9 4 6.5s3 3.5 3 5.5a6.98 6.98 0 0 1-11.91 4.97"></path></svg>
