<?xml version="1.0" encoding="UTF-8"?><svg id="Vrstva_1" xmlns="http://www.w3.org/2000/svg" xmlns:xlink="http://www.w3.org/1999/xlink" viewBox="0 0 944 686"><defs><style>.cls-1{fill:url(#Nepojmenovaný_přechod_78);}.cls-2{fill:url(#Nepojmenovaný_přechod_78-2);}.cls-3{fill:#008abf;}</style><linearGradient id="Nepojmenovaný_přechod_78" x1="606.39" y1="62.35" x2="392.71" y2="649.42" gradientUnits="userSpaceOnUse"><stop offset=".04" stop-color="#008ac0"/><stop offset=".52" stop-color="#432273"/><stop offset=".85" stop-color="#0087be"/></linearGradient><linearGradient id="Nepojmenovaný_přechod_78-2" x1="535.89" y1="36.69" x2="322.22" y2="623.76" xlink:href="#Nepojmenovaný_přechod_78"/></defs><path class="cls-1" d="M748.12,437.7h-.11c-13.9,12.38-28.58,38.22-28.58,38.22l-.04-.09c-48.08,92.01-144.44,154.96-255.24,154.96s-207.19-62.97-255.26-155l-.05.12s-14.75-25.97-28.68-38.31c-2.59,22.49,3.02,40.83,6.4,48.4-.04-.03-.08-.06-.12-.09,14.64,28.37,33.73,54.62,56.96,77.84,58.97,58.97,137.37,91.44,220.76,91.44s161.8-32.47,220.76-91.44c23.23-23.23,42.34-49.49,56.98-77.88-.06.04-.12.08-.18.12,3.38-7.55,8.97-25.86,6.41-48.31Z"/><path class="cls-2" d="M179.6,249.43c13.93-12.34,28.68-38.31,28.68-38.31l.05.12c47.89-92.59,144.57-156.03,255.81-156.03s207.92,63.44,255.81,156.03l.05-.12s14.75,25.97,28.68,38.31c2.59-22.49-3.02-40.83-6.4-48.4.04.03.08.06.12.08-14.71-28.77-33.99-55.37-57.5-78.88-58.97-58.97-137.37-91.44-220.76-91.44s-161.8,32.48-220.76,91.44c-23.51,23.51-42.79,50.11-57.5,78.88.04-.03.08-.06.12-.08-3.38,7.56-8.99,25.91-6.4,48.4Z"/><polygon class="cls-3" points="86.88 283.07 50.55 283.07 30.93 401.27 67.26 401.27 86.88 283.07"/><path class="cls-3" d="M109.32,318.69h-15.95l-3.41,20.56h15.95l-5.83,35.09c-1,6.02-.9,10.93.3,14.71,1.2,3.78,3.49,6.71,6.87,8.77,3.38,2.07,7.81,3.45,13.31,4.16,5.49.71,11.96,1.06,19.41,1.06s14-.53,19.32-1.6c5.32-1.06,9.82-3.48,13.52-7.26,1.71-1.77,3.12-3.69,4.24-5.76,1.11-2.07,1.98-4.28,2.61-6.65.63-2.36,1.2-4.9,1.71-7.62.51-2.72,1.03-5.67,1.56-8.86h-24.1c-.41,2.48-.81,4.7-1.19,6.65-.38,1.95-1.1,3.57-2.14,4.87-1.05,1.3-2.51,2.31-4.4,3.01-1.89.71-4.49,1.06-7.8,1.06s-5.78-.41-7.41-1.24c-1.63-.82-2.72-1.95-3.25-3.36-.54-1.42-.7-3.07-.51-4.96.19-1.89.47-3.9.82-6.03l4.33-26.05h49.98l3.41-20.56h-49.98l3.41-20.56h-31.36l-3.41,20.56Z"/><path class="cls-3" d="M354.1,351.92c-3.56-1.71-8.28-2.78-14.18-3.19-5.9-.41-12.92-.62-21.07-.62-1.77,0-3.73.03-5.87.09-2.13.06-4.15.09-6.04.09h-11.16c-3.08,0-5.56-.18-7.44-.53-1.89-.36-3.21-.91-3.97-1.68-.76-.77-1-1.98-.73-3.64.31-1.89,1.11-3.33,2.41-4.34,1.29-1,3.04-1.74,5.24-2.22,2.21-.47,4.88-.73,8.02-.8,3.14-.06,6.72-.09,10.74-.09s7.19.06,9.9.18c2.69.12,4.87.38,6.51.8,1.64.42,2.78,1.04,3.41,1.86.63.83.96,1.89.98,3.19h32.25c.59-5.67.23-10.1-1.07-13.29-1.3-3.19-3.83-5.61-7.57-7.27-3.74-1.65-8.83-2.69-15.26-3.1-6.43-.41-14.49-.62-24.17-.62-13.23,0-24.03.47-32.4,1.42-8.37.94-14.48,2.72-18.34,5.31-3.17,2.01-5.85,4.82-8.04,8.42-2.19,3.6-3.65,7.59-4.38,11.96-1.1,6.62-.82,11.66.85,15.15,1.66,3.49,4.5,6,8.49,7.53,4,1.54,9.08,2.42,15.24,2.66,6.16.24,13.2.36,21.12.36h18.08c5.67,0,9.69.32,12.07.97,2.38.65,3.32,2.46,2.83,5.41-.33,2.01-1.1,3.57-2.28,4.7-1.19,1.12-2.93,1.95-5.2,2.48-2.28.53-5.19.83-8.74.89-3.55.06-7.81.09-12.77.09-4.49,0-8.29-.06-11.4-.18-3.11-.12-5.62-.47-7.53-1.06-1.91-.59-3.21-1.45-3.92-2.57-.7-1.12-.88-2.68-.55-4.69h-32.07c-1,6.73-.63,11.93,1.13,15.59,1.76,3.67,4.8,6.35,9.12,8.06,4.32,1.71,9.88,2.75,16.67,3.1,6.79.35,14.8.53,24.01.53,11.81,0,21.65-.35,29.51-1.06,7.85-.71,14.24-2.16,19.15-4.35,4.91-2.18,8.58-5.23,11-9.13,2.42-3.9,4.16-9.04,5.22-15.42.94-5.67.77-10.16-.51-13.47-1.28-3.31-3.7-5.82-7.25-7.53Z"/><polygon class="cls-3" points="482.64 401.27 497.36 312.67 549.46 312.67 554.37 283.07 412.95 283.07 408.04 312.67 461.03 312.67 446.31 401.27 482.64 401.27"/><polygon class="cls-3" points="561.28 283.07 557.55 305.58 588.2 305.58 591.94 283.07 561.28 283.07"/><polygon class="cls-3" points="555.4 318.51 541.66 401.27 572.32 401.27 586.06 318.51 555.4 318.51"/><path class="cls-3" d="M719.47,341.64c3.16-.89,7.22-1.33,12.18-1.33s9.08.3,11.99.89c2.91.59,5.05,1.62,6.4,3.1,1.35,1.48,2.07,3.52,2.18,6.12.1,2.6-.18,5.85-.82,9.75l-6.83,41.11h30.13l7.89-47.49c2.18-13.11.08-22.53-6.29-28.27-6.37-5.73-17.06-8.6-32.07-8.6-6.03,0-11.52.56-16.5,1.68-4.97,1.13-8.57,2.33-10.79,3.63-3.27,1.89-5.7,3.9-7.29,6.02-1.59,2.13-3.01,4.43-4.25,6.91-1.84-6.74-5.69-11.46-11.56-14.18-5.87-2.72-14.07-4.08-24.58-4.08-5.32,0-9.9.35-13.74,1.06-3.84.71-7.18,1.77-10.01,3.19-2.84,1.42-5.32,3.19-7.44,5.32-2.12,2.13-4.01,4.61-5.66,7.44l2.56-15.42h-30.66l-13.74,82.76h30.66l7.18-43.24c1.1-6.62,3.72-11.22,7.88-13.83,4.15-2.6,10.6-3.9,19.34-3.9,5.2,0,9.23.3,12.08.89,2.85.59,4.93,1.6,6.23,3.01,1.3,1.42,1.94,3.25,1.92,5.5-.02,2.25-.3,5.02-.85,8.33l-7.18,43.24h30.66l6.56-39.52c.61-3.66,1.4-6.82,2.37-9.48.97-2.66,2.43-4.88,4.38-6.65,1.95-1.77,4.5-3.1,7.66-3.99Z"/><path class="cls-3" d="M906.64,324.89c-3.13-3.19-7.89-5.32-14.27-6.38-6.38-1.06-14.36-1.59-23.93-1.59-12.52,0-22.89.35-31.1,1.06-8.21.71-14.93,2.57-20.16,5.58-5.22,3.01-9.27,7.59-12.11,13.73-2.85,6.15-5.19,14.71-7.01,25.7-1.53,9.22-1.53,16.48.01,21.8,1.53,5.32,4.71,9.33,9.52,12.05,4.81,2.72,11.32,4.43,19.53,5.14,8.21.71,18.22,1.06,30.04,1.06,8.27,0,15.4-.44,21.4-1.33,5.99-.89,11.04-2.45,15.13-4.7,4.09-2.24,7.31-5.22,9.64-8.95,2.33-3.72,3.95-8.36,4.88-13.91h-30.3c-.51,2.37-1.23,4.2-2.15,5.49-.93,1.3-2.44,2.25-4.54,2.84-2.11.59-4.97.91-8.58.97-3.62.06-8.31.09-14.1.09-4.49,0-8.18-.2-11.06-.62-2.89-.41-5.12-1.18-6.71-2.3-1.58-1.12-2.58-2.63-2.97-4.52-.39-1.89-.34-4.37.17-7.44l.53-3.19h81.16c.62-4.49,1.26-8.65,1.9-12.49.63-3.84,1-7.44,1.08-10.81.08-3.36-.29-6.47-1.11-9.3-.83-2.83-2.46-5.49-4.88-7.97ZM882.55,347.22l-.41,2.48h-51.04l.38-2.31c.49-2.95,1.46-5.23,2.91-6.82,1.45-1.59,3.39-2.8,5.83-3.63,2.44-.83,5.36-1.33,8.76-1.51,3.4-.18,7.28-.26,11.65-.26s7.86.12,10.84.35c2.97.24,5.37.74,7.19,1.51,1.82.77,3.05,1.95,3.67,3.54.62,1.59.69,3.81.22,6.65Z"/><path class="cls-3" d="M203.93,316.04c-.96,12.09,7.3,21.98,18.68,21.98s21.2-9.89,22.16-21.98-17.81-32.96-17.81-32.96c0,0-22.07,20.88-23.03,32.96Z"/></svg>