<?xml version="1.0" encoding="UTF-8"?>
<svg id="Vrstva_1" xmlns="http://www.w3.org/2000/svg" xmlns:xlink="http://www.w3.org/1999/xlink" version="1.1" viewBox="0 0 944 686">
  <!-- Generator: Adobe Illustrator 29.8.2, SVG Export Plug-In . SVG Version: 2.1.1 Build 3)  -->
  <defs>
    <style>
      .st0 {
        fill: #008abf;
      }

      .st1 {
        fill: url(#Nepojmenovaný_přechod_2);
      }
    </style>
    <linearGradient id="Nepojmenovaný_přechod_2" data-name="Nepojmenovaný přechod 2" x1="570.35" y1="623.25" x2="363.94" y2="56.14" gradientTransform="translate(418.3 -235.88) rotate(49.13)" gradientUnits="userSpaceOnUse">
      <stop offset=".04" stop-color="#008ac0"/>
      <stop offset=".52" stop-color="#432273"/>
      <stop offset=".85" stop-color="#0087be"/>
    </linearGradient>
  </defs>
  <polygon class="st0" points="86.88 283.07 50.55 283.07 30.93 401.27 67.26 401.27 86.88 283.07"/>
  <path class="st0" d="M109.32,318.69h-15.95l-3.41,20.56h15.95l-5.83,35.09c-1,6.02-.9,10.93.3,14.71,1.2,3.78,3.49,6.71,6.87,8.77,3.38,2.07,7.81,3.45,13.31,4.16,5.49.71,11.96,1.06,19.41,1.06s14-.53,19.32-1.6c5.32-1.06,9.82-3.48,13.52-7.26,1.71-1.77,3.12-3.69,4.24-5.76,1.11-2.07,1.98-4.28,2.61-6.65.63-2.36,1.2-4.9,1.71-7.62.51-2.72,1.03-5.67,1.56-8.86h-24.1c-.41,2.48-.81,4.7-1.19,6.65-.38,1.95-1.1,3.57-2.14,4.87-1.05,1.3-2.51,2.31-4.4,3.01-1.89.71-4.49,1.06-7.8,1.06s-5.78-.41-7.41-1.24c-1.63-.82-2.72-1.95-3.25-3.36-.54-1.42-.7-3.07-.51-4.96.19-1.89.47-3.9.82-6.03l4.33-26.05h49.98l3.41-20.56h-49.98l3.41-20.56h-31.36l-3.41,20.56h-.01Z"/>
  <path class="st0" d="M354.1,351.92c-3.56-1.71-8.28-2.78-14.18-3.19s-12.92-.62-21.07-.62c-1.77,0-3.73.03-5.87.09-2.13.06-4.15.09-6.04.09h-11.16c-3.08,0-5.56-.18-7.44-.53-1.89-.36-3.21-.91-3.97-1.68s-1-1.98-.73-3.64c.31-1.89,1.11-3.33,2.41-4.34,1.29-1,3.04-1.74,5.24-2.22,2.21-.47,4.88-.73,8.02-.8,3.14-.06,6.72-.09,10.74-.09s7.19.06,9.9.18c2.69.12,4.87.38,6.51.8,1.64.42,2.78,1.04,3.41,1.86.63.83.96,1.89.98,3.19h32.25c.59-5.67.23-10.1-1.07-13.29-1.3-3.19-3.83-5.61-7.57-7.27-3.74-1.65-8.83-2.69-15.26-3.1-6.43-.41-14.49-.62-24.17-.62-13.23,0-24.03.47-32.4,1.42-8.37.94-14.48,2.72-18.34,5.31-3.17,2.01-5.85,4.82-8.04,8.42s-3.65,7.59-4.38,11.96c-1.1,6.62-.82,11.66.85,15.15,1.66,3.49,4.5,6,8.49,7.53,4,1.54,9.08,2.42,15.24,2.66s13.2.36,21.12.36h18.08c5.67,0,9.69.32,12.07.97s3.32,2.46,2.83,5.41c-.33,2.01-1.1,3.57-2.28,4.7-1.19,1.12-2.93,1.95-5.2,2.48-2.28.53-5.19.83-8.74.89-3.55.06-7.81.09-12.77.09-4.49,0-8.29-.06-11.4-.18s-5.62-.47-7.53-1.06-3.21-1.45-3.92-2.57c-.7-1.12-.88-2.68-.55-4.69h-32.07c-1,6.73-.63,11.93,1.13,15.59,1.76,3.67,4.8,6.35,9.12,8.06,4.32,1.71,9.88,2.75,16.67,3.1s14.8.53,24.01.53c11.81,0,21.65-.35,29.51-1.06,7.85-.71,14.24-2.16,19.15-4.35,4.91-2.18,8.58-5.23,11-9.13s4.16-9.04,5.22-15.42c.94-5.67.77-10.16-.51-13.47s-3.7-5.82-7.25-7.53h-.04Z"/>
  <polygon class="st0" points="482.64 401.27 497.36 312.67 549.46 312.67 554.37 283.07 412.95 283.07 408.04 312.67 461.03 312.67 446.31 401.27 482.64 401.27"/>
  <polygon class="st0" points="561.28 283.07 557.55 305.58 588.2 305.58 591.94 283.07 561.28 283.07"/>
  <polygon class="st0" points="555.4 318.51 541.66 401.27 572.32 401.27 586.06 318.51 555.4 318.51"/>
  <path class="st0" d="M719.47,341.64c3.16-.89,7.22-1.33,12.18-1.33s9.08.3,11.99.89c2.91.59,5.05,1.62,6.4,3.1,1.35,1.48,2.07,3.52,2.18,6.12.1,2.6-.18,5.85-.82,9.75l-6.83,41.11h30.13l7.89-47.49c2.18-13.11.08-22.53-6.29-28.27-6.37-5.73-17.06-8.6-32.07-8.6-6.03,0-11.52.56-16.5,1.68-4.97,1.13-8.57,2.33-10.79,3.63-3.27,1.89-5.7,3.9-7.29,6.02-1.59,2.13-3.01,4.43-4.25,6.91-1.84-6.74-5.69-11.46-11.56-14.18s-14.07-4.08-24.58-4.08c-5.32,0-9.9.35-13.74,1.06-3.84.71-7.18,1.77-10.01,3.19-2.84,1.42-5.32,3.19-7.44,5.32s-4.01,4.61-5.66,7.44l2.56-15.42h-30.66l-13.74,82.76h30.66l7.18-43.24c1.1-6.62,3.72-11.22,7.88-13.83,4.15-2.6,10.6-3.9,19.34-3.9,5.2,0,9.23.3,12.08.89,2.85.59,4.93,1.6,6.23,3.01,1.3,1.42,1.94,3.25,1.92,5.5s-.3,5.02-.85,8.33l-7.18,43.24h30.66l6.56-39.52c.61-3.66,1.4-6.82,2.37-9.48s2.43-4.88,4.38-6.65,4.5-3.1,7.66-3.99v.03Z"/>
  <path class="st0" d="M906.64,324.89c-3.13-3.19-7.89-5.32-14.27-6.38s-14.36-1.59-23.93-1.59c-12.52,0-22.89.35-31.1,1.06-8.21.71-14.93,2.57-20.16,5.58-5.22,3.01-9.27,7.59-12.11,13.73-2.85,6.15-5.19,14.71-7.01,25.7-1.53,9.22-1.53,16.48.01,21.8,1.53,5.32,4.71,9.33,9.52,12.05s11.32,4.43,19.53,5.14c8.21.71,18.22,1.06,30.04,1.06,8.27,0,15.4-.44,21.4-1.33,5.99-.89,11.04-2.45,15.13-4.7,4.09-2.24,7.31-5.22,9.64-8.95,2.33-3.72,3.95-8.36,4.88-13.91h-30.3c-.51,2.37-1.23,4.2-2.15,5.49-.93,1.3-2.44,2.25-4.54,2.84-2.11.59-4.97.91-8.58.97-3.62.06-8.31.09-14.1.09-4.49,0-8.18-.2-11.06-.62-2.89-.41-5.12-1.18-6.71-2.3-1.58-1.12-2.58-2.63-2.97-4.52-.39-1.89-.34-4.37.17-7.44l.53-3.19h81.16c.62-4.49,1.26-8.65,1.9-12.49.63-3.84,1-7.44,1.08-10.81.08-3.36-.29-6.47-1.11-9.3-.83-2.83-2.46-5.49-4.88-7.97h-.01ZM882.55,347.22l-.41,2.48h-51.04l.38-2.31c.49-2.95,1.46-5.23,2.91-6.82,1.45-1.59,3.39-2.8,5.83-3.63,2.44-.83,5.36-1.33,8.76-1.51,3.4-.18,7.28-.26,11.65-.26s7.86.12,10.84.35c2.97.24,5.37.74,7.19,1.51,1.82.77,3.05,1.95,3.67,3.54s.69,3.81.22,6.65h0Z"/>
  <path class="st0" d="M202.83,310.46c-.72,10.75,5.47,19.54,13.99,19.54s15.87-8.79,16.59-19.54c.72-10.75-13.33-29.3-13.33-29.3,0,0-16.52,18.56-17.24,29.3Z"/>
  <path class="st1" d="M745.09,428.4c-4.3,0-8.11,2.76-9.48,6.84-3.93,11.68-8.62,23.05-14.05,34.04-16.16,32.74-38.82,62.18-67.18,86.73-56.73,49.1-129.53,72.78-205,66.67-75.53-6.11-144.68-41.31-194.71-99.12-23.07-26.66-40.81-56.65-52.74-88.65-1.46-3.91-5.19-6.51-9.37-6.51h0c-6.99,0-11.81,6.99-9.37,13.54,12.76,34.19,31.7,66.23,56.35,94.71,53.49,61.8,127.44,99.43,208.23,105.97,8.34.67,16.66,1.01,24.92,1.01,71.85,0,140.24-25.29,194.78-72.5,40.66-35.19,70.37-79.74,87.13-129.59,2.17-6.46-2.69-13.14-9.51-13.14h0ZM279.91,123.33c50.88-44.03,114.67-67.62,181.72-67.62,7.72,0,15.49.31,23.28.94,75.53,6.11,144.68,41.32,194.71,99.13,24.63,28.46,43.18,60.72,55.08,95.16,1.4,4.04,5.18,6.77,9.46,6.77h0c6.84,0,11.71-6.73,9.48-13.2-12.73-36.86-32.56-71.38-58.9-101.82-53.49-61.8-127.44-99.44-208.23-105.97-80.85-6.53-158.88,18.85-219.7,71.48-42.56,36.83-73.13,83.92-89.4,136.63-1.98,6.41,2.88,12.88,9.58,12.88h0c4.39,0,8.26-2.87,9.56-7.07,15.2-49.11,43.69-92.99,83.34-127.31Z"/>
</svg>