<?xml version="1.0" encoding="UTF-8"?>
<svg xmlns="http://www.w3.org/2000/svg" xmlns:xlink="http://www.w3.org/1999/xlink" width="270" height="270" viewBox="0 0 270 270">
<defs>
<clipPath id="clip-0">
<path clip-rule="nonzero" d="M 6 69 L 258.75 69 L 258.75 140 L 6 140 Z M 6 69 "/>
</clipPath>
<clipPath id="clip-1">
<path clip-rule="nonzero" d="M 6 150 L 258.75 150 L 258.75 208 L 6 208 Z M 6 150 "/>
</clipPath>
<clipPath id="clip-2">
<path clip-rule="nonzero" d="M 31 229 L 235 229 L 235 245.25 L 31 245.25 Z M 31 229 "/>
</clipPath>
</defs>
<path fill-rule="nonzero" fill="rgb(26.269531%, 50.588989%, 73.329163%)" fill-opacity="1" d="M 144.730469 84.257812 C 136.371094 84.257812 129.566406 77.464844 129.566406 69.113281 C 129.566406 61.066406 143.261719 44.164062 143.84375 43.445312 C 144.0625 43.179688 144.386719 43.027344 144.730469 43.027344 C 145.074219 43.027344 145.402344 43.179688 145.617188 43.445312 C 146.199219 44.164062 159.898438 61.066406 159.898438 69.113281 C 159.894531 77.464844 153.09375 84.257812 144.730469 84.257812 Z M 144.734375 45.996094 C 143.476562 47.605469 141.058594 50.78125 138.660156 54.386719 C 134.207031 61.085938 131.851562 66.179688 131.851562 69.113281 C 131.851562 76.207031 137.628906 81.980469 144.730469 81.980469 C 151.832031 81.980469 157.613281 76.207031 157.613281 69.113281 C 157.613281 63.523438 149.019531 51.445312 144.734375 45.996094 Z M 144.734375 45.996094 "/>
<path fill-rule="nonzero" fill="rgb(26.269531%, 50.588989%, 73.329163%)" fill-opacity="1" d="M 145.828125 78.054688 C 140.289062 78.054688 135.78125 73.554688 135.78125 68.019531 C 135.78125 67.390625 136.292969 66.878906 136.921875 66.878906 C 137.554688 66.878906 138.0625 67.390625 138.0625 68.019531 C 138.0625 72.296875 141.546875 75.773438 145.828125 75.773438 C 146.457031 75.773438 146.96875 76.285156 146.96875 76.914062 C 146.96875 77.542969 146.457031 78.054688 145.828125 78.054688 Z M 145.828125 78.054688 "/>
<g clip-path="url(#clip-0)">
<path fill-rule="nonzero" fill="rgb(13.729858%, 34.118652%, 51.759338%)" fill-opacity="1" d="M 29.230469 139.453125 L 6 139.453125 L 6 69.953125 L 29.230469 69.953125 L 29.230469 123.984375 L 21.488281 123.984375 L 21.488281 77.683594 L 13.742188 77.683594 L 13.742188 131.71875 L 29.230469 131.71875 Z M 43.128906 93.152344 L 43.128906 69.953125 L 119.074219 69.953125 L 119.074219 93.152344 L 100.410156 93.152344 L 100.410156 85.417969 L 111.328125 85.417969 L 111.328125 77.683594 L 50.871094 77.683594 L 50.871094 85.417969 L 77.277344 85.417969 L 77.179688 131.71875 L 84.921875 131.71875 L 84.921875 85.417969 L 92.664062 85.417969 L 92.664062 139.453125 L 69.4375 139.453125 L 69.4375 93.152344 Z M 240.878906 108.617188 C 201.46875 108.617188 200.875 108.519531 200.378906 108.519531 L 200.179688 108.519531 C 190.25 107.726562 182.605469 99.296875 182.605469 89.285156 C 182.605469 78.578125 191.242188 69.953125 201.964844 69.953125 L 243.660156 69.953125 C 252 69.953125 258.75 76.691406 258.75 85.121094 L 258.75 93.152344 L 202.066406 93.152344 C 199.78125 93.050781 198.292969 91.367188 198.292969 89.285156 C 198.292969 87.203125 199.882812 85.515625 201.964844 85.417969 L 251.007812 85.417969 L 251.007812 85.21875 C 251.007812 80.957031 247.730469 77.683594 243.460938 77.683594 L 201.964844 77.683594 C 195.613281 77.683594 190.351562 82.839844 190.351562 89.285156 C 190.351562 95.234375 194.816406 99.992188 200.476562 100.785156 C 240.085938 100.785156 240.484375 100.882812 241.179688 100.882812 C 251.105469 101.679688 258.75 110.203125 258.75 120.117188 C 258.75 130.828125 250.113281 139.453125 239.492188 139.453125 L 197.695312 139.453125 C 189.359375 139.453125 182.605469 132.710938 182.605469 124.382812 L 182.605469 116.253906 L 239.492188 116.253906 C 244.355469 116.550781 244.355469 123.6875 239.492188 123.984375 L 190.351562 123.984375 L 190.351562 124.183594 C 190.351562 128.445312 193.625 131.71875 197.894531 131.71875 L 239.492188 131.71875 C 245.746094 131.71875 251.105469 126.761719 251.105469 120.117188 C 251.105469 114.171875 246.636719 109.410156 240.878906 108.617188 Z M 240.878906 108.617188 "/>
</g>
<g clip-path="url(#clip-1)">
<path fill-rule="nonzero" fill="rgb(13.729858%, 34.118652%, 51.759338%)" fill-opacity="1" d="M 6 169.609375 L 6 150.726562 L 67.8125 150.726562 L 67.8125 169.609375 L 52.621094 169.609375 L 52.621094 163.316406 L 61.511719 163.316406 L 61.511719 157.019531 L 12.300781 157.019531 L 12.300781 163.316406 L 33.796875 163.316406 L 33.714844 201 L 40.019531 201 L 40.019531 163.316406 L 46.320312 163.316406 L 46.320312 207.296875 L 27.414062 207.296875 L 27.414062 169.609375 Z M 98.035156 207.296875 L 79.125 207.296875 L 79.125 150.726562 L 98.035156 150.726562 L 98.035156 194.707031 L 91.730469 194.707031 L 91.730469 157.019531 L 85.429688 157.019531 L 85.429688 201 L 98.035156 201 Z M 147.484375 182.765625 L 165.585938 150.726562 L 185.625 150.726562 L 185.625 207.296875 L 166.714844 207.296875 L 166.714844 186.152344 L 154.675781 207.296875 L 140.210938 207.296875 L 121.871094 175.179688 L 121.871094 163.316406 L 143.929688 201 L 151.039062 201 L 173.019531 163.316406 L 173.019531 201 L 179.320312 201 L 179.320312 157.019531 L 169.222656 157.019531 L 147.324219 194.789062 L 125.75 157.019531 L 115.648438 157.019531 L 115.648438 201 L 121.871094 201 L 121.871094 189.140625 L 128.171875 199.953125 L 128.171875 207.296875 L 109.347656 207.296875 L 109.347656 150.726562 L 129.386719 150.726562 Z M 258.75 150.726562 L 258.75 169.609375 L 215.84375 169.609375 L 215.84375 175.90625 L 247.679688 175.90625 L 247.679688 182.199219 L 209.542969 182.199219 L 209.542969 163.316406 L 252.449219 163.316406 L 252.449219 157.019531 L 203.238281 157.019531 L 203.238281 201 L 252.449219 201 L 252.449219 194.707031 L 209.542969 194.707031 L 209.542969 188.414062 L 258.75 188.414062 L 258.75 207.296875 L 196.9375 207.296875 L 196.9375 150.726562 Z M 258.75 150.726562 "/>
</g>
<g clip-path="url(#clip-2)">
<path fill-rule="nonzero" fill="rgb(13.729858%, 34.118652%, 51.759338%)" fill-opacity="1" d="M 45.175781 234.226562 L 43.1875 234.226562 C 42.613281 231.5625 40.390625 231.078125 38.929688 231.078125 C 36.175781 231.078125 33.953125 233.109375 33.953125 237.105469 C 33.953125 240.679688 35.222656 243.425781 38.992188 243.425781 C 40.328125 243.425781 42.636719 242.792969 43.335938 239.261719 L 45.324219 239.261719 C 44.476562 244.992188 39.820312 245.246094 38.675781 245.246094 C 35.222656 245.246094 31.835938 243.003906 31.835938 237.167969 C 31.835938 232.496094 34.503906 229.257812 38.929688 229.257812 C 42.847656 229.257812 44.878906 231.691406 45.175781 234.226562 Z M 59.820312 240.425781 L 53.722656 240.425781 L 52.132812 244.84375 L 50.015625 244.84375 L 55.734375 229.660156 L 58.0625 229.660156 L 63.570312 244.84375 L 61.324219 244.84375 Z M 54.359375 238.605469 L 59.078125 238.605469 L 56.835938 231.921875 L 56.792969 231.921875 Z M 71.289062 238.332031 L 71.289062 244.84375 L 69.234375 244.84375 L 69.234375 229.660156 L 76.265625 229.660156 C 78.765625 229.660156 81.261719 230.527344 81.261719 233.742188 C 81.261719 235.984375 80.117188 236.808594 79.144531 237.378906 C 80.011719 237.738281 80.882812 238.121094 80.964844 240.234375 L 81.09375 242.984375 C 81.113281 243.828125 81.21875 244.144531 81.855469 244.507812 L 81.855469 244.84375 L 79.335938 244.84375 C 79.039062 243.914062 78.976562 241.609375 78.976562 241.039062 C 78.976562 239.789062 78.722656 238.332031 76.265625 238.332031 Z M 71.289062 231.414062 L 71.289062 236.574219 L 76.054688 236.574219 C 77.558594 236.574219 79.144531 236.195312 79.144531 233.953125 C 79.144531 231.605469 77.429688 231.414062 76.414062 231.414062 Z M 97.316406 244.84375 L 97.316406 229.660156 L 103.480469 229.660156 C 107.4375 229.660156 109.875 232.664062 109.875 237.039062 C 109.875 240.445312 108.390625 244.84375 103.394531 244.84375 Z M 99.371094 231.414062 L 99.371094 243.089844 L 103.351562 243.089844 C 106.019531 243.089844 107.757812 240.996094 107.757812 237.167969 C 107.757812 233.339844 106 231.414062 103.203125 231.414062 Z M 127.460938 243.027344 L 127.460938 244.84375 L 116.238281 244.84375 L 116.238281 229.660156 L 127.3125 229.660156 L 127.3125 231.480469 L 118.292969 231.480469 L 118.292969 236.132812 L 126.613281 236.132812 L 126.613281 237.949219 L 118.292969 237.949219 L 118.292969 243.027344 Z M 132.363281 231.480469 L 132.363281 229.660156 L 144.710938 229.660156 L 144.710938 231.480469 L 139.5625 231.480469 L 139.5625 244.84375 L 137.511719 244.84375 L 137.511719 231.480469 Z M 158.632812 240.425781 L 152.535156 240.425781 L 150.949219 244.84375 L 148.832031 244.84375 L 154.546875 229.660156 L 156.875 229.660156 L 162.382812 244.84375 L 160.136719 244.84375 Z M 153.171875 238.605469 L 157.894531 238.605469 L 155.648438 231.921875 L 155.605469 231.921875 Z M 170.164062 229.660156 L 170.164062 244.84375 L 168.113281 244.84375 L 168.113281 229.660156 Z M 179.261719 229.660156 L 179.261719 243.027344 L 186.96875 243.027344 L 186.96875 244.84375 L 177.207031 244.84375 L 177.207031 229.660156 Z M 194.878906 229.660156 L 194.878906 244.84375 L 192.828125 244.84375 L 192.828125 229.660156 Z M 212.003906 241.925781 L 212.003906 229.660156 L 213.992188 229.660156 L 213.992188 244.84375 L 211.683594 244.84375 L 203.957031 232.578125 L 203.914062 232.578125 L 203.914062 244.84375 L 201.921875 244.84375 L 201.921875 229.660156 L 204.359375 229.660156 L 211.960938 241.925781 Z M 227.367188 238.480469 L 227.367188 236.722656 L 234.035156 236.722656 L 234.035156 244.84375 L 232.703125 244.84375 L 232.214844 242.878906 C 231.179688 244.316406 229.273438 245.246094 227.199219 245.246094 C 224.59375 245.246094 223.324219 244.292969 222.539062 243.53125 C 220.210938 241.332031 220.144531 238.734375 220.144531 237.125 C 220.144531 233.425781 222.390625 229.257812 227.34375 229.257812 C 230.183594 229.257812 233.339844 230.867188 233.78125 234.269531 L 231.792969 234.269531 C 231.136719 231.628906 228.914062 231.078125 227.238281 231.078125 C 224.507812 231.078125 222.261719 233.253906 222.261719 237.230469 C 222.261719 240.320312 223.28125 243.492188 227.324219 243.492188 C 228.085938 243.492188 229.316406 243.40625 230.4375 242.519531 C 231.769531 241.460938 232.109375 240.105469 232.109375 238.480469 Z M 227.367188 238.480469 "/>
</g>
</svg>
