<svg xmlns="http://www.w3.org/2000/svg" width="24" height="24" viewBox="0 0 24 24" fill="none" stroke="rgb(26, 140, 255)" stroke-width="2" stroke-linecap="round" stroke-linejoin="round" class="" data-lov-id="src/components/Services.tsx:72:20" data-lov-name="Icon" data-component-path="src/components/Services.tsx" data-component-line="72" data-component-file="Services.tsx" data-component-name="Icon" data-component-content="%7B%22className%22%3A%22w-6%20h-6%20text-accent%22%7D"><path d="M11 21.73a2 2 0 0 0 2 0l7-4A2 2 0 0 0 21 16V8a2 2 0 0 0-1-1.73l-7-4a2 2 0 0 0-2 0l-7 4A2 2 0 0 0 3 8v8a2 2 0 0 0 1 1.73z"></path><path d="M12 22V12"></path><path d="m3.3 7 7.703 4.734a2 2 0 0 0 1.994 0L20.7 7"></path><path d="m7.5 4.27 9 5.15"></path></svg>
